<?xml version="1.0" encoding="UTF-8"?> <svg xmlns="http://www.w3.org/2000/svg" version="1.2" viewBox="0 0 400 180" width="400" height="180"><title>logo-svg</title><style> .s0 { fill: #404040 } </style><g id="🖥️-Desktop"><g id="1.-Homepage"><g id="Client-Logo/-Primary-Logo-Facial-Bar"><path id="Shape" fill-rule="evenodd" class="s0" d="m25 80.2l3.3-4.1c2.1 2.5 4.8 3.5 7 3.5 2.6 0 4-1.2 4-2.9 0-2.1-1.5-2.8-4.9-4-4.2-1.5-8.4-3.4-8.4-8.7 0-4.5 3.9-7.9 8.9-8 3.5 0 6.7 1.3 9.4 3.5l-3.2 4.2c-2.3-1.9-4.3-2.7-6.1-2.7-1.9 0-3.2 1-3.3 2.8 0 1.7 1.5 2.4 4.7 3.7 4.8 1.9 8.6 3.1 8.6 8.5 0 6.1-5.3 8.6-9.8 8.6-3.9 0-7.6-1.6-10.2-4.4zm30-23.8h5.5v27.9h-5.5zm17 0h5.5v23h12.4v4.9h-17.9zm47.2 0l-10.4 28h-4.8l-10.4-28h6l6.8 20.1h0.1l6.7-20.1zm9 0h17.8v5h-12.4v6.7h9.9v4.9h-9.9v6.5h13.2v4.9h-18.6zm43.5 27.9l-6.2-9.5h-3.2v9.5h-5.5v-27.9h10.6c6.7 0 9.7 3.9 9.7 9.3 0 4.5-2.2 7.2-5.8 8.4l6.9 10.2zm-9.4-14.4h3.8c3.4 0 5.3-1.8 5.3-4.3 0-2.6-1.8-4.3-5-4.3h-4.1zm65.5-13.5v28h-5.4v-17.4h-0.1l-6.8 12h-3.6l-6.8-12v17.4h-5.5v-28h5.5l8.6 15.9h0.1l8.5-15.9zm11.4 0h5.6v28h-5.6zm31.9 27.9l-6.2-9.6h-3.3v9.6h-5.4v-27.9h10.5c6.8 0 9.7 3.9 9.7 9.3 0 4.4-2.1 7.2-5.7 8.4l6.9 10.2zm-9.4-14.4h3.8c3.4 0 5.3-1.8 5.3-4.4 0-2.5-1.8-4.2-5.1-4.2h-4zm40.2 14.4l-6.3-9.5h-3.2v9.5h-5.5v-27.9h10.6c6.7 0 9.7 3.9 9.7 9.3 0 4.5-2.2 7.2-5.7 8.4l6.9 10.2zm-9.5-14.4h3.9c3.4 0 5.2-1.8 5.2-4.4 0-2.5-1.8-4.2-5-4.2h-4.1zm36.8 14.8c-7.9 0-14.2-6.4-14.2-14.4 0-7.9 6.3-14.3 14.2-14.3 7.8 0 14.2 6.4 14.2 14.3 0 8-6.4 14.4-14.2 14.4zm8.4-14.3c0-5.1-3.8-9.2-8.4-9.2-4.7 0-8.5 4.1-8.5 9.2 0 5 3.8 9.1 8.5 9.1 4.6 0 8.4-4.1 8.4-9.1zm30 13.9l-6.3-9.5h-3.2v9.5h-5.4v-27.9h10.5c6.7 0 9.7 3.9 9.7 9.3 0 4.5-2.1 7.2-5.7 8.4l6.9 10.2zm-9.5-14.4h3.9c3.4 0 5.2-1.8 5.2-4.3 0-2.6-1.8-4.3-5-4.3h-4.1z"></path><path id="Shape" fill-rule="evenodd" class="s0" d="m127.6 105.5h10.1v2.1h-7.9v4.9h6.7v2.1h-6.7v6.5h-2.2zm63.6 0.1l5.9 15.5h-2.4l-1.3-3.7h-6.5l-1.4 3.7h-2.3l5.8-15.6h2.2zm1.4 9.7l-2.6-6.8-2.4 6.8zm-44.8-9.7l5.8 15.5h-2.4l-1.3-3.7h-6.5l-1.3 3.7h-2.4l5.9-15.7h2.1zm1.4 9.8l-2.5-6.9-2.5 6.9zm26.7-9.9h2.2v15.6h-2.2zm95.5 15.6h-2.7l-3.9-5.8h-2.5v5.8h-2.3v-15.6h5.6c3.3 0 5.2 1.8 5.2 4.9 0 2.5-1.2 4.1-3.5 4.7zm-6.2-7.9c2.2 0 3.4-1.1 3.4-2.8 0-1.8-1.2-2.8-3.2-2.8h-3.1v5.6zm-106.3 0.2c0 3.4 2.2 5.6 5.4 5.6 1.8 0 3.4-0.8 4.4-2.2l0.1-0.1 1.7 1.4-0.1 0.2c-1.4 1.9-3.7 3-6.1 2.9-3.8 0-7.7-2.4-7.7-7.8 0-4.8 3.1-8 7.7-8 2.4 0 4.7 1.1 6.1 2.9l0.1 0.2-1.7 1.4-0.1-0.1c-1-1.4-2.6-2.2-4.4-2.3-3.2 0-5.4 2.4-5.4 5.9zm45.6 5.6h7.5v2.1h-9.8v-15.6h2.3zm44.7-13.5l5.9 15.6h-2.4l-1.3-3.7h-6.5l-1.3 3.7h-2.4l5.9-15.6zm1.4 9.9l-2.5-6.9-2.5 6.9zm-13.1 1.4c0 2.7-2 4.3-5.3 4.3h-5.7v-15.6h5.1c3.3 0 5.1 1.4 5.1 3.9 0.1 1.5-0.7 2.8-2 3.4 1.7 0.6 2.8 2.2 2.8 4zm-8.8-4.8h2.9c0.7 0 2.8-0.1 2.8-2.2q0-2.2-3.2-2.2h-2.5zm6.4 4.6c0-1.6-1.2-2.5-3.3-2.5h-3.1v4.9h3c2.2 0 3.4-0.9 3.4-2.4z"></path></g></g></g></svg> 